<?xml version="1.0" encoding="UTF-8"?>
<!DOCTYPE svg PUBLIC "-//W3C//DTD SVG 1.1//EN" "http://www.w3.org/Graphics/SVG/1.1/DTD/svg11.dtd">
<svg xmlns="http://www.w3.org/2000/svg" xmlns:xlink="http://www.w3.org/1999/xlink" version="1.1" width="781px" height="459px" viewBox="-0.5 -0.5 781 459" style="background-color: rgb(255, 255, 255);"><defs><style type="text/css">ul { margin-top: 0px; margin-bottom: 10px } &#xa;ol { margin-top: 0px; margin-bottom: 10px } &#xa;ul { margin-top: 0px; margin-bottom: 10px } &#xa;ol { margin-top: 0px; margin-bottom: 10px } &#xa;ul { margin-top: 0px; margin-bottom: 10px } &#xa;ol { margin-top: 0px; margin-bottom: 10px } &#xa;</style></defs><g><rect x="324.5" y="16.5" width="80" height="58" fill="#7acff5" stroke="#000000" pointer-events="none"/><path d="M 324.5 32.87 L 404.5 32.87" fill="none" stroke="#000000" stroke-miterlimit="10" pointer-events="none"/><g fill="#000000" font-family="Helvetica" font-weight="bold" text-anchor="middle" font-size="12px"><text x="363.41" y="28">Мяч</text></g><g fill="#000000" font-family="Helvetica" font-size="12px"><text x="331" y="47.37">диаметр</text></g><g fill="#000000" font-family="Helvetica" font-size="12px"><text x="331" y="63.37">масса</text></g><rect x="111.5" y="0.5" width="160" height="156" fill="#7acff5" stroke="#000000" pointer-events="none"/><path d="M 111.5 16.86 L 271.5 16.86" fill="none" stroke="#000000" stroke-miterlimit="10" pointer-events="none"/><g fill="#000000" font-family="Helvetica" font-weight="bold" text-anchor="middle" font-size="12px"><text x="190.41" y="12">Игрок</text></g><g fill="#000000" font-family="Helvetica" font-size="12px"><text x="118" y="31.36">имя</text></g><g fill="#000000" font-family="Helvetica" font-size="12px"><text x="118" y="47.36">рост</text></g><g fill="#000000" font-family="Helvetica" font-size="12px"><text x="118" y="63.36">вес</text></g><g fill="#000000" font-family="Helvetica" font-size="12px"><text x="118" y="81.36">вести мяч()</text></g><g fill="#000000" font-family="Helvetica" font-size="12px"><text x="118" y="97.36">передаватьМяч()</text></g><g fill="#000000" font-family="Helvetica" font-size="12px"><text x="118" y="113.36">бросатьМяч()</text></g><g fill="#000000" font-family="Helvetica" font-size="12px"><text x="118" y="129.36">отбиратьМяч()</text></g><g fill="#000000" font-family="Helvetica" font-size="12px"><text x="118" y="145.36">обыгрыватьПротивника()</text></g><rect x="176" y="287.5" width="160" height="40" fill="#7acff5" stroke="#000000" pointer-events="none"/><path d="M 176 303.86 L 336 303.86" fill="none" stroke="#000000" stroke-miterlimit="10" pointer-events="none"/><g fill="#000000" font-family="Helvetica" font-weight="bold" text-anchor="middle" font-size="12px"><text x="254.91" y="299">Защитник</text></g><rect x="0.5" y="287.5" width="160" height="40" fill="#7acff5" stroke="#000000" pointer-events="none"/><path d="M 0.5 303.86 L 160.5 303.86" fill="none" stroke="#000000" stroke-miterlimit="10" pointer-events="none"/><g fill="#000000" font-family="Helvetica" font-weight="bold" text-anchor="middle" font-size="12px"><text x="79.41" y="299">Нападающий</text></g><rect x="351.5" y="287.5" width="160" height="40" fill="#7acff5" stroke="#000000" pointer-events="none"/><path d="M 351.5 303.86 L 511.5 303.86" fill="none" stroke="#000000" stroke-miterlimit="10" pointer-events="none"/><g fill="#000000" font-family="Helvetica" font-weight="bold" text-anchor="middle" font-size="12px"><text x="430.41" y="299">Центровой</text></g><rect x="136" y="396" width="80" height="40" fill="#7acff5" stroke="#000000" pointer-events="none"/><path d="M 136 412.36 L 216 412.36" fill="none" stroke="#000000" stroke-miterlimit="10" pointer-events="none"/><g fill="#000000" font-family="Helvetica" font-weight="bold" text-anchor="middle" font-size="12px"><text x="174.91" y="407.5">Команда</text></g><rect x="471.5" y="356" width="80" height="40" fill="#7acff5" stroke="#000000" pointer-events="none"/><path d="M 471.5 372.36 L 551.5 372.36" fill="none" stroke="#000000" stroke-miterlimit="10" pointer-events="none"/><g fill="#000000" font-family="Helvetica" font-weight="bold" text-anchor="middle" font-size="12px"><text x="510.41" y="367.5">Корзина</text></g><rect x="649" y="173" width="80" height="40" fill="#7acff5" stroke="#000000" pointer-events="none"/><path d="M 649 189.36 L 729 189.36" fill="none" stroke="#000000" stroke-miterlimit="10" pointer-events="none"/><g fill="#000000" font-family="Helvetica" font-weight="bold" text-anchor="middle" font-size="12px"><text x="687.91" y="184.5">Бросок</text></g><rect x="324.5" y="416" width="80" height="40" fill="#7acff5" stroke="#000000" pointer-events="none"/><path d="M 324.5 432.36 L 404.5 432.36" fill="none" stroke="#000000" stroke-miterlimit="10" pointer-events="none"/><g fill="#000000" font-family="Helvetica" font-weight="bold" text-anchor="middle" font-size="12px"><text x="363.41" y="427.5">Нарушение</text></g><rect x="404.5" y="182" width="160" height="40" fill="#7acff5" stroke="#000000" pointer-events="none"/><path d="M 404.5 198.37 L 564.5 198.37" fill="none" stroke="#000000" stroke-miterlimit="10" pointer-events="none"/><g fill="#000000" font-family="Helvetica" font-weight="bold" text-anchor="middle" font-size="12px"><text x="483.41" y="193.5">ТрехОчковаяЛиния</text></g><rect x="609" y="258.5" width="160" height="40" fill="#7acff5" stroke="#000000" pointer-events="none"/><path d="M 609 274.86 L 769 274.86" fill="none" stroke="#000000" stroke-miterlimit="10" pointer-events="none"/><g fill="#000000" font-family="Helvetica" font-weight="bold" text-anchor="middle" font-size="12px"><text x="687.91" y="270">СвободныйБросок</text></g><rect x="444.5" y="85" width="80" height="40" fill="#7acff5" stroke="#000000" pointer-events="none"/><path d="M 444.5 101.36 L 524.5 101.36" fill="none" stroke="#000000" stroke-miterlimit="10" pointer-events="none"/><g fill="#000000" font-family="Helvetica" font-weight="bold" text-anchor="middle" font-size="12px"><text x="483.41" y="96.5">ВремяАтаки</text></g><rect x="560" y="85" width="80" height="40" fill="#7acff5" stroke="#000000" pointer-events="none"/><path d="M 560 101.36 L 640 101.36" fill="none" stroke="#000000" stroke-miterlimit="10" pointer-events="none"/><g fill="#000000" font-family="Helvetica" font-weight="bold" text-anchor="middle" font-size="12px"><text x="598.91" y="96.5">ВремяТайма</text></g><rect x="675.5" y="85" width="80" height="40" fill="#7acff5" stroke="#000000" pointer-events="none"/><path d="M 675.5 101.36 L 755.5 101.36" fill="none" stroke="#000000" stroke-miterlimit="10" pointer-events="none"/><g fill="#000000" font-family="Helvetica" font-weight="bold" text-anchor="middle" font-size="12px"><text x="714.41" y="96.5">ВремяМатча</text></g><rect x="618.5" y="395.91" width="160" height="40" fill="#7acff5" stroke="#000000" pointer-events="none"/><path d="M 618.5 412.28 L 778.5 412.28" fill="none" stroke="#000000" stroke-miterlimit="10" pointer-events="none"/><g fill="#000000" font-family="Helvetica" font-weight="bold" text-anchor="middle" font-size="12px"><text x="697.41" y="407.41">ЛинияСвободногоБроска</text></g><rect x="658.5" y="327.41" width="80" height="40" fill="#7acff5" stroke="#000000" pointer-events="none"/><path d="M 658.5 343.77 L 738.5 343.77" fill="none" stroke="#000000" stroke-miterlimit="10" pointer-events="none"/><g fill="#000000" font-family="Helvetica" font-weight="bold" text-anchor="middle" font-size="12px"><text x="697.41" y="338.91">Площадка</text></g><rect x="560" y="5.5" width="80" height="40" fill="#7acff5" stroke="#000000" pointer-events="none"/><path d="M 560 21.86 L 640 21.86" fill="none" stroke="#000000" stroke-miterlimit="10" pointer-events="none"/><g fill="#000000" font-family="Helvetica" font-weight="bold" text-anchor="middle" font-size="12px"><text x="598.91" y="17">Время</text></g><path d="M 599.71 58.82 L 599.71 62.26 Q 599.71 65.71 589.71 65.71 L 494.41 65.71 Q 484.41 65.71 484.41 75.35 L 484.41 85" fill="none" stroke="#000000" stroke-miterlimit="10" pointer-events="none"/><path d="M 599.71 46.82 L 605.71 58.82 L 593.71 58.82 Z" fill="none" stroke="#000000" stroke-miterlimit="10" pointer-events="none"/><path d="M 599.71 58.82 L 599.71 84.53" fill="none" stroke="#000000" stroke-miterlimit="10" pointer-events="none"/><path d="M 599.71 46.82 L 605.71 58.82 L 593.71 58.82 Z" fill="none" stroke="#000000" stroke-miterlimit="10" pointer-events="none"/><path d="M 599.71 58.82 L 599.71 62.26 Q 599.71 65.71 609.71 65.71 L 705 65.71 Q 715 65.71 715 75.12 L 715 84.53" fill="none" stroke="#000000" stroke-miterlimit="10" pointer-events="none"/><path d="M 599.71 46.82 L 605.71 58.82 L 593.71 58.82 Z" fill="none" stroke="#000000" stroke-miterlimit="10" pointer-events="none"/><path d="M 689.12 225.88 L 689.12 258.65" fill="none" stroke="#000000" stroke-miterlimit="10" pointer-events="none"/><path d="M 689.12 213.88 L 695.12 225.88 L 683.12 225.88 Z" fill="none" stroke="#000000" stroke-miterlimit="10" pointer-events="none"/><path d="M 191.47 169.62 L 191.47 212.18 Q 191.47 222.18 201.47 222.18 L 246.18 222.18 Q 256.18 222.18 256.18 232.18 L 256.18 287.5" fill="none" stroke="#000000" stroke-miterlimit="10" pointer-events="none"/><path d="M 191.47 157.62 L 197.47 169.62 L 185.47 169.62 Z" fill="none" stroke="#000000" stroke-miterlimit="10" pointer-events="none"/><path d="M 191.47 169.62 L 191.47 212.18 Q 191.47 222.18 181.47 222.18 L 90.88 222.18 Q 80.88 222.18 80.88 232.18 L 80.88 288.06" fill="none" stroke="#000000" stroke-miterlimit="10" pointer-events="none"/><path d="M 191.47 157.62 L 197.47 169.62 L 185.47 169.62 Z" fill="none" stroke="#000000" stroke-miterlimit="10" pointer-events="none"/><path d="M 191.47 169.62 L 191.47 238.06 Q 191.47 248.06 201.47 248.06 L 421.47 248.06 Q 431.47 248.06 431.47 258.06 L 431.47 287.5" fill="none" stroke="#000000" stroke-miterlimit="10" pointer-events="none"/><path d="M 191.47 157.62 L 197.47 169.62 L 185.47 169.62 Z" fill="none" stroke="#000000" stroke-miterlimit="10" pointer-events="none"/><path d="M 176.18 382.29 L 176.18 372.18 Q 176.18 362.18 166.18 362.18 L 90.88 362.18 Q 80.88 362.18 80.88 352.18 L 80.88 328.06" fill="none" stroke="#000000" stroke-miterlimit="10" pointer-events="none"/><path d="M 176.18 395.29 L 169.68 388.79 L 176.18 382.29 L 182.68 388.79 Z" fill="#000000" stroke="#000000" stroke-miterlimit="10" pointer-events="none"/><path d="M 176.18 382.29 L 176.18 372.18 Q 176.18 362.18 186.18 362.18 L 246.18 362.18 Q 256.18 362.18 256.18 352.18 L 256.18 328.06" fill="none" stroke="#000000" stroke-miterlimit="10" pointer-events="none"/><path d="M 176.18 395.29 L 169.68 388.79 L 176.18 382.29 L 182.68 388.79 Z" fill="#000000" stroke="#000000" stroke-miterlimit="10" pointer-events="none"/><path d="M 176.18 382.59 L 176.18 372.18 Q 176.18 362.18 186.18 362.18 L 421.47 362.18 Q 431.47 362.18 431.47 352.18 L 431.47 327.5" fill="none" stroke="#000000" stroke-miterlimit="10" pointer-events="none"/><path d="M 176.18 395.59 L 169.68 389.09 L 176.18 382.59 L 182.68 389.09 Z" fill="#000000" stroke="#000000" stroke-miterlimit="10" pointer-events="none"/><path d="M 599.71 58.82 L 599.71 62.26 Q 599.71 65.71 589.71 65.71 L 494.41 65.71 Q 484.41 65.71 484.41 75.35 L 484.41 85" fill="none" stroke="#000000" stroke-miterlimit="10" pointer-events="none"/><path d="M 599.71 46.82 L 605.71 58.82 L 593.71 58.82 Z" fill="none" stroke="#000000" stroke-miterlimit="10" pointer-events="none"/><path d="M 599.71 58.82 L 599.71 84.53" fill="none" stroke="#000000" stroke-miterlimit="10" pointer-events="none"/><path d="M 599.71 46.82 L 605.71 58.82 L 593.71 58.82 Z" fill="none" stroke="#000000" stroke-miterlimit="10" pointer-events="none"/><path d="M 599.71 58.82 L 599.71 62.26 Q 599.71 65.71 609.71 65.71 L 705 65.71 Q 715 65.71 715 75.12 L 715 84.53" fill="none" stroke="#000000" stroke-miterlimit="10" pointer-events="none"/><path d="M 599.71 46.82 L 605.71 58.82 L 593.71 58.82 Z" fill="none" stroke="#000000" stroke-miterlimit="10" pointer-events="none"/><path d="M 689.12 225.88 L 689.12 258.65" fill="none" stroke="#000000" stroke-miterlimit="10" pointer-events="none"/><path d="M 689.12 213.88 L 695.12 225.88 L 683.12 225.88 Z" fill="none" stroke="#000000" stroke-miterlimit="10" pointer-events="none"/><path d="M 191.47 169.62 L 191.47 212.18 Q 191.47 222.18 201.47 222.18 L 246.18 222.18 Q 256.18 222.18 256.18 232.18 L 256.18 287.5" fill="none" stroke="#000000" stroke-miterlimit="10" pointer-events="none"/><path d="M 191.47 157.62 L 197.47 169.62 L 185.47 169.62 Z" fill="none" stroke="#000000" stroke-miterlimit="10" pointer-events="none"/><path d="M 191.47 169.62 L 191.47 212.18 Q 191.47 222.18 181.47 222.18 L 90.88 222.18 Q 80.88 222.18 80.88 232.18 L 80.88 288.06" fill="none" stroke="#000000" stroke-miterlimit="10" pointer-events="none"/><path d="M 191.47 157.62 L 197.47 169.62 L 185.47 169.62 Z" fill="none" stroke="#000000" stroke-miterlimit="10" pointer-events="none"/><path d="M 191.47 169.62 L 191.47 238.06 Q 191.47 248.06 201.47 248.06 L 421.47 248.06 Q 431.47 248.06 431.47 258.06 L 431.47 287.5" fill="none" stroke="#000000" stroke-miterlimit="10" pointer-events="none"/><path d="M 191.47 157.62 L 197.47 169.62 L 185.47 169.62 Z" fill="none" stroke="#000000" stroke-miterlimit="10" pointer-events="none"/><path d="M 176.18 382.29 L 176.18 372.18 Q 176.18 362.18 166.18 362.18 L 90.88 362.18 Q 80.88 362.18 80.88 352.18 L 80.88 328.06" fill="none" stroke="#000000" stroke-miterlimit="10" pointer-events="none"/><path d="M 176.18 395.29 L 169.68 388.79 L 176.18 382.29 L 182.68 388.79 Z" fill="#000000" stroke="#000000" stroke-miterlimit="10" pointer-events="none"/><path d="M 176.18 382.29 L 176.18 372.18 Q 176.18 362.18 186.18 362.18 L 246.18 362.18 Q 256.18 362.18 256.18 352.18 L 256.18 328.06" fill="none" stroke="#000000" stroke-miterlimit="10" pointer-events="none"/><path d="M 176.18 395.29 L 169.68 388.79 L 176.18 382.29 L 182.68 388.79 Z" fill="#000000" stroke="#000000" stroke-miterlimit="10" pointer-events="none"/><path d="M 176.18 382.59 L 176.18 372.18 Q 176.18 362.18 186.18 362.18 L 421.47 362.18 Q 431.47 362.18 431.47 352.18 L 431.47 327.5" fill="none" stroke="#000000" stroke-miterlimit="10" pointer-events="none"/><path d="M 176.18 395.59 L 169.68 389.09 L 176.18 382.59 L 182.68 389.09 Z" fill="#000000" stroke="#000000" stroke-miterlimit="10" pointer-events="none"/></g><g fill="#787878" font-family="Arial,Helvetica" font-size="12px"><text x="6" y="15">Visual Paradigm Online Diagrams Express Edition</text></g><g fill="#787878" font-family="Arial,Helvetica" text-anchor="end" font-size="12px"><text x="775" y="452">Visual Paradigm Online Diagrams Express Edition</text></g></svg>